<mxfile host="65bd71144e">
    <diagram id="NA8SMDckS1I9ZLGI_7sc" name="Page-1">
        <mxGraphModel dx="703" dy="387" grid="1" gridSize="10" guides="1" tooltips="1" connect="1" arrows="1" fold="1" page="1" pageScale="1" pageWidth="850" pageHeight="1100" math="0" shadow="0">
            <root>
                <mxCell id="0"/>
                <mxCell id="1" parent="0"/>
                <mxCell id="2" value="&amp;lt;&amp;lt;Boundary&amp;gt;&amp;gt;&lt;br&gt;&lt;b&gt;HomePageView&lt;/b&gt;" style="swimlane;fontStyle=0;align=center;verticalAlign=top;childLayout=stackLayout;horizontal=1;startSize=40;horizontalStack=0;resizeParent=1;resizeParentMax=0;resizeLast=0;collapsible=0;marginBottom=0;html=1;whiteSpace=wrap;fillColor=#dae8fc;strokeColor=#6c8ebf;swimlaneFillColor=none;gradientColor=none;fillStyle=auto;" parent="1" vertex="1">
                    <mxGeometry x="360" y="140" width="270" height="260" as="geometry"/>
                </mxCell>
                <mxCell id="3" value="-btnSettings: Button&lt;div&gt;-btnViewMap: Button&lt;/div&gt;&lt;div&gt;-btnGeneratePersonalizedRoute: Button&lt;/div&gt;&lt;div&gt;-btnSearchBar: Button&lt;/div&gt;&lt;div&gt;-btnHamburgerMenu: Button&lt;/div&gt;&lt;div&gt;-btnExhibitInfo: Button&lt;/div&gt;&lt;div&gt;-mapDisplay: Map&lt;/div&gt;" style="text;html=1;strokeColor=#6c8ebf;fillColor=#dae8fc;align=left;verticalAlign=middle;spacingLeft=4;spacingRight=4;overflow=hidden;rotatable=0;points=[[0,0.5],[1,0.5]];portConstraint=eastwest;whiteSpace=wrap;swimlaneFillColor=none;gradientColor=none;fillStyle=auto;" parent="2" vertex="1">
                    <mxGeometry y="40" width="270" height="110" as="geometry"/>
                </mxCell>
                <mxCell id="4" value="&lt;span&gt;&lt;font style=&quot;color: rgb(0, 0, 0);&quot;&gt;+btnSettingsPress(): void&lt;/font&gt;&lt;/span&gt;&lt;div&gt;&lt;font style=&quot;color: rgb(0, 0, 0);&quot;&gt;+btnViewMapPress(): void&lt;/font&gt;&lt;/div&gt;&lt;div&gt;&lt;font style=&quot;color: rgb(0, 0, 0);&quot;&gt;+btnGeneratePersonalizedRoutePress(): void&lt;/font&gt;&lt;/div&gt;&lt;div&gt;&lt;font style=&quot;color: rgb(0, 0, 0);&quot;&gt;+btnSearchBar&lt;span style=&quot;background-color: transparent; color: rgb(63, 63, 63);&quot;&gt;Press(): void&lt;/span&gt;&lt;/font&gt;&lt;/div&gt;&lt;div&gt;&lt;font style=&quot;color: rgb(0, 0, 0);&quot;&gt;+btnHamburgerMenu&lt;span style=&quot;background-color: transparent; color: rgb(63, 63, 63);&quot;&gt;Press(): void&lt;/span&gt;&lt;/font&gt;&lt;/div&gt;&lt;div&gt;&lt;span style=&quot;background-color: transparent; color: rgb(63, 63, 63);&quot;&gt;&lt;font style=&quot;color: rgb(0, 0, 0);&quot;&gt;+btnExhibitInfo(): void&lt;/font&gt;&lt;/span&gt;&lt;/div&gt;&lt;div&gt;&lt;font style=&quot;color: rgb(0, 0, 0);&quot;&gt;&lt;span style=&quot;background-color: transparent; box-shadow: none !important;&quot;&gt;+&lt;/span&gt;&lt;span style=&quot;background-color: transparent; box-shadow: none !important; color: rgb(63, 63, 63);&quot;&gt;&lt;font&gt;dragMapDisplay&lt;/font&gt;&lt;/span&gt;&lt;span style=&quot;background-color: transparent; box-shadow: none !important;&quot;&gt;(&lt;/span&gt;&lt;span style=&quot;background-color: transparent; box-shadow: none !important;&quot;&gt;Array&amp;lt;float&amp;gt;&lt;/span&gt;&lt;span style=&quot;background-color: transparent; box-shadow: none !important;&quot;&gt;): Array&amp;lt;float&amp;gt;&lt;/span&gt;&lt;/font&gt;&lt;/div&gt;" style="text;html=1;strokeColor=#000000;fillColor=#dae8fc;align=left;verticalAlign=middle;spacingLeft=4;spacingRight=4;overflow=hidden;rotatable=0;points=[[0,0.5],[1,0.5]];portConstraint=eastwest;whiteSpace=wrap;swimlaneFillColor=none;gradientColor=none;fillStyle=auto;" parent="2" vertex="1">
                    <mxGeometry y="150" width="270" height="110" as="geometry"/>
                </mxCell>
                <mxCell id="5" value="&lt;font style=&quot;color: rgb(0, 0, 0);&quot;&gt;&amp;lt;&amp;lt;Controller&amp;gt;&amp;gt;&lt;br&gt;&lt;b&gt;HomePageControler&lt;/b&gt;&lt;/font&gt;" style="swimlane;fontStyle=0;align=center;verticalAlign=top;childLayout=stackLayout;horizontal=1;startSize=40;horizontalStack=0;resizeParent=1;resizeParentMax=0;resizeLast=0;collapsible=0;marginBottom=0;html=1;whiteSpace=wrap;fillColor=#dae8fc;strokeColor=#6c8ebf;swimlaneFillColor=none;gradientColor=none;fillStyle=auto;" parent="1" vertex="1">
                    <mxGeometry x="90" y="440" width="230" height="170" as="geometry"/>
                </mxCell>
                <mxCell id="6" value="" style="text;html=1;strokeColor=#6c8ebf;fillColor=#dae8fc;align=left;verticalAlign=middle;spacingLeft=4;spacingRight=4;overflow=hidden;rotatable=0;points=[[0,0.5],[1,0.5]];portConstraint=eastwest;whiteSpace=wrap;swimlaneFillColor=none;gradientColor=none;fillStyle=auto;" parent="5" vertex="1">
                    <mxGeometry y="40" width="230" height="10" as="geometry"/>
                </mxCell>
                <mxCell id="7" value="&lt;div&gt;&lt;font style=&quot;color: rgb(0, 0, 0);&quot;&gt;+displayControl(): void&lt;/font&gt;&lt;/div&gt;&lt;font style=&quot;color: rgb(0, 0, 0);&quot;&gt;+displayMenuPage(): void&lt;/font&gt;&lt;div&gt;&lt;font style=&quot;color: rgb(0, 0, 0);&quot;&gt;+displaySettingsPage(): void&lt;/font&gt;&lt;/div&gt;&lt;div&gt;&lt;font style=&quot;color: rgb(0, 0, 0);&quot;&gt;+displayMapPage(): void&lt;/font&gt;&lt;/div&gt;&lt;div&gt;&lt;font style=&quot;color: rgb(0, 0, 0);&quot;&gt;+displayRouteMenu(): void&lt;/font&gt;&lt;/div&gt;&lt;div&gt;&lt;font style=&quot;color: rgb(0, 0, 0);&quot;&gt;+displayExhibitInfo(): void&lt;/font&gt;&lt;/div&gt;&lt;div&gt;&lt;font style=&quot;color: rgb(0, 0, 0);&quot;&gt;+handleSearch(query: String): void&lt;/font&gt;&lt;/div&gt;&lt;div&gt;&lt;font style=&quot;color: rgb(0, 0, 0);&quot;&gt;+moveMapDisplay(Array&amp;lt;float&amp;gt;): void&lt;/font&gt;&lt;/div&gt;" style="text;html=1;strokeColor=#6c8ebf;fillColor=#dae8fc;align=left;verticalAlign=middle;spacingLeft=4;spacingRight=4;overflow=hidden;rotatable=0;points=[[0,0.5],[1,0.5]];portConstraint=eastwest;whiteSpace=wrap;swimlaneFillColor=none;gradientColor=none;fillStyle=auto;" parent="5" vertex="1">
                    <mxGeometry y="50" width="230" height="120" as="geometry"/>
                </mxCell>
                <mxCell id="8" value="" style="endArrow=none;startArrow=none;endFill=0;startFill=0;endSize=8;html=1;verticalAlign=bottom;labelBackgroundColor=none;strokeWidth=1;entryX=0.497;entryY=0.993;entryDx=0;entryDy=0;entryPerimeter=0;strokeColor=default;rounded=0;curved=0;" edge="1" parent="1" target="4">
                    <mxGeometry width="160" relative="1" as="geometry">
                        <mxPoint x="320" y="540" as="sourcePoint"/>
                        <mxPoint x="480" y="540" as="targetPoint"/>
                        <Array as="points">
                            <mxPoint x="494" y="540"/>
                        </Array>
                    </mxGeometry>
                </mxCell>
                <mxCell id="10" value="1" style="edgeLabel;html=1;align=center;verticalAlign=middle;resizable=0;points=[];" vertex="1" connectable="0" parent="8">
                    <mxGeometry x="0.9257" y="-1" relative="1" as="geometry">
                        <mxPoint x="5" as="offset"/>
                    </mxGeometry>
                </mxCell>
                <mxCell id="11" value="1" style="edgeLabel;html=1;align=center;verticalAlign=middle;resizable=0;points=[];" vertex="1" connectable="0" parent="1">
                    <mxGeometry x="510.1737869391502" y="421.2428463108787" as="geometry">
                        <mxPoint x="-179" y="128" as="offset"/>
                    </mxGeometry>
                </mxCell>
            </root>
        </mxGraphModel>
    </diagram>
</mxfile>